<mxfile host="app.diagrams.net" modified="2023-11-11T13:27:42.420Z" agent="Mozilla/5.0 (Windows NT 10.0; Win64; x64) AppleWebKit/537.36 (KHTML, like Gecko) Chrome/119.0.0.0 Safari/537.36" etag="E0REd8z1rFbR_mLBcmRw" version="22.1.0" type="device">
  <diagram name="Trang-1" id="x4x-F4_IkWxdwFMuhGEN">
    <mxGraphModel dx="880" dy="484" grid="1" gridSize="10" guides="1" tooltips="1" connect="1" arrows="1" fold="1" page="1" pageScale="1" pageWidth="827" pageHeight="1169" math="0" shadow="0">
      <root>
        <mxCell id="0" />
        <mxCell id="1" parent="0" />
        <mxCell id="Op1IBPKBzXU0KuALItda-3" style="edgeStyle=orthogonalEdgeStyle;rounded=0;orthogonalLoop=1;jettySize=auto;html=1;exitX=0.5;exitY=1;exitDx=0;exitDy=0;entryX=0.5;entryY=0;entryDx=0;entryDy=0;" edge="1" parent="1" source="Op1IBPKBzXU0KuALItda-1" target="Op1IBPKBzXU0KuALItda-2">
          <mxGeometry relative="1" as="geometry" />
        </mxCell>
        <mxCell id="Op1IBPKBzXU0KuALItda-1" value="&lt;font style=&quot;vertical-align: inherit;&quot;&gt;&lt;font style=&quot;vertical-align: inherit;&quot;&gt;Start&lt;/font&gt;&lt;/font&gt;" style="ellipse;whiteSpace=wrap;html=1;" vertex="1" parent="1">
          <mxGeometry x="340" y="10" width="120" height="80" as="geometry" />
        </mxCell>
        <mxCell id="Op1IBPKBzXU0KuALItda-6" style="edgeStyle=orthogonalEdgeStyle;rounded=0;orthogonalLoop=1;jettySize=auto;html=1;exitX=0.5;exitY=1;exitDx=0;exitDy=0;entryX=0.5;entryY=0;entryDx=0;entryDy=0;" edge="1" parent="1" source="Op1IBPKBzXU0KuALItda-2" target="Op1IBPKBzXU0KuALItda-5">
          <mxGeometry relative="1" as="geometry" />
        </mxCell>
        <mxCell id="Op1IBPKBzXU0KuALItda-2" value="&lt;font style=&quot;vertical-align: inherit;&quot;&gt;&lt;font style=&quot;vertical-align: inherit;&quot;&gt;Nhập tổng thu nhập của nhân viên là x&lt;/font&gt;&lt;/font&gt;" style="shape=parallelogram;perimeter=parallelogramPerimeter;whiteSpace=wrap;html=1;fixedSize=1;" vertex="1" parent="1">
          <mxGeometry x="340" y="160" width="120" height="60" as="geometry" />
        </mxCell>
        <mxCell id="Op1IBPKBzXU0KuALItda-8" style="edgeStyle=orthogonalEdgeStyle;rounded=0;orthogonalLoop=1;jettySize=auto;html=1;exitX=0.5;exitY=1;exitDx=0;exitDy=0;" edge="1" parent="1" source="Op1IBPKBzXU0KuALItda-5" target="Op1IBPKBzXU0KuALItda-7">
          <mxGeometry relative="1" as="geometry" />
        </mxCell>
        <mxCell id="Op1IBPKBzXU0KuALItda-19" value="&lt;font style=&quot;vertical-align: inherit;&quot;&gt;&lt;font style=&quot;vertical-align: inherit;&quot;&gt;false&lt;/font&gt;&lt;/font&gt;" style="edgeLabel;html=1;align=center;verticalAlign=middle;resizable=0;points=[];" vertex="1" connectable="0" parent="Op1IBPKBzXU0KuALItda-8">
          <mxGeometry x="-0.0571" relative="1" as="geometry">
            <mxPoint as="offset" />
          </mxGeometry>
        </mxCell>
        <mxCell id="Op1IBPKBzXU0KuALItda-35" style="edgeStyle=orthogonalEdgeStyle;rounded=0;orthogonalLoop=1;jettySize=auto;html=1;exitX=1;exitY=0.5;exitDx=0;exitDy=0;entryX=0;entryY=0.5;entryDx=0;entryDy=0;" edge="1" parent="1" source="Op1IBPKBzXU0KuALItda-5" target="Op1IBPKBzXU0KuALItda-29">
          <mxGeometry relative="1" as="geometry" />
        </mxCell>
        <mxCell id="Op1IBPKBzXU0KuALItda-49" value="&lt;font style=&quot;vertical-align: inherit;&quot;&gt;&lt;font style=&quot;vertical-align: inherit;&quot;&gt;true&lt;/font&gt;&lt;/font&gt;" style="edgeLabel;html=1;align=center;verticalAlign=middle;resizable=0;points=[];" vertex="1" connectable="0" parent="Op1IBPKBzXU0KuALItda-35">
          <mxGeometry x="-0.1778" y="-3" relative="1" as="geometry">
            <mxPoint as="offset" />
          </mxGeometry>
        </mxCell>
        <mxCell id="Op1IBPKBzXU0KuALItda-5" value="&lt;font style=&quot;vertical-align: inherit;&quot;&gt;&lt;font style=&quot;vertical-align: inherit;&quot;&gt;x&amp;gt;80&lt;/font&gt;&lt;/font&gt;" style="rhombus;whiteSpace=wrap;html=1;" vertex="1" parent="1">
          <mxGeometry x="360" y="280" width="80" height="80" as="geometry" />
        </mxCell>
        <mxCell id="Op1IBPKBzXU0KuALItda-10" style="edgeStyle=orthogonalEdgeStyle;rounded=0;orthogonalLoop=1;jettySize=auto;html=1;exitX=0.5;exitY=1;exitDx=0;exitDy=0;entryX=0.5;entryY=0;entryDx=0;entryDy=0;" edge="1" parent="1" source="Op1IBPKBzXU0KuALItda-7" target="Op1IBPKBzXU0KuALItda-9">
          <mxGeometry relative="1" as="geometry" />
        </mxCell>
        <mxCell id="Op1IBPKBzXU0KuALItda-20" value="&lt;font style=&quot;vertical-align: inherit;&quot;&gt;&lt;font style=&quot;vertical-align: inherit;&quot;&gt;false&lt;/font&gt;&lt;/font&gt;" style="edgeLabel;html=1;align=center;verticalAlign=middle;resizable=0;points=[];" vertex="1" connectable="0" parent="Op1IBPKBzXU0KuALItda-10">
          <mxGeometry x="-0.1678" relative="1" as="geometry">
            <mxPoint as="offset" />
          </mxGeometry>
        </mxCell>
        <mxCell id="Op1IBPKBzXU0KuALItda-36" style="edgeStyle=orthogonalEdgeStyle;rounded=0;orthogonalLoop=1;jettySize=auto;html=1;exitX=1;exitY=0.5;exitDx=0;exitDy=0;entryX=0;entryY=0.5;entryDx=0;entryDy=0;" edge="1" parent="1" source="Op1IBPKBzXU0KuALItda-7" target="Op1IBPKBzXU0KuALItda-30">
          <mxGeometry relative="1" as="geometry" />
        </mxCell>
        <mxCell id="Op1IBPKBzXU0KuALItda-50" value="&lt;font style=&quot;vertical-align: inherit;&quot;&gt;&lt;font style=&quot;vertical-align: inherit;&quot;&gt;true&lt;/font&gt;&lt;/font&gt;" style="edgeLabel;html=1;align=center;verticalAlign=middle;resizable=0;points=[];" vertex="1" connectable="0" parent="Op1IBPKBzXU0KuALItda-36">
          <mxGeometry x="-0.0444" y="-5" relative="1" as="geometry">
            <mxPoint as="offset" />
          </mxGeometry>
        </mxCell>
        <mxCell id="Op1IBPKBzXU0KuALItda-7" value="&lt;font style=&quot;vertical-align: inherit;&quot;&gt;&lt;font style=&quot;vertical-align: inherit;&quot;&gt;x&amp;gt;52&lt;/font&gt;&lt;/font&gt;" style="rhombus;whiteSpace=wrap;html=1;" vertex="1" parent="1">
          <mxGeometry x="360" y="430" width="80" height="80" as="geometry" />
        </mxCell>
        <mxCell id="Op1IBPKBzXU0KuALItda-12" style="edgeStyle=orthogonalEdgeStyle;rounded=0;orthogonalLoop=1;jettySize=auto;html=1;exitX=0.5;exitY=1;exitDx=0;exitDy=0;entryX=0.5;entryY=0;entryDx=0;entryDy=0;" edge="1" parent="1" source="Op1IBPKBzXU0KuALItda-9" target="Op1IBPKBzXU0KuALItda-11">
          <mxGeometry relative="1" as="geometry" />
        </mxCell>
        <mxCell id="Op1IBPKBzXU0KuALItda-21" value="&lt;font style=&quot;vertical-align: inherit;&quot;&gt;&lt;font style=&quot;vertical-align: inherit;&quot;&gt;false&lt;br&gt;&lt;/font&gt;&lt;/font&gt;" style="edgeLabel;html=1;align=center;verticalAlign=middle;resizable=0;points=[];" vertex="1" connectable="0" parent="Op1IBPKBzXU0KuALItda-12">
          <mxGeometry x="-0.1603" y="3" relative="1" as="geometry">
            <mxPoint as="offset" />
          </mxGeometry>
        </mxCell>
        <mxCell id="Op1IBPKBzXU0KuALItda-38" style="edgeStyle=orthogonalEdgeStyle;rounded=0;orthogonalLoop=1;jettySize=auto;html=1;exitX=1;exitY=0.5;exitDx=0;exitDy=0;entryX=0;entryY=0.5;entryDx=0;entryDy=0;" edge="1" parent="1" source="Op1IBPKBzXU0KuALItda-9" target="Op1IBPKBzXU0KuALItda-31">
          <mxGeometry relative="1" as="geometry" />
        </mxCell>
        <mxCell id="Op1IBPKBzXU0KuALItda-51" value="&lt;font style=&quot;vertical-align: inherit;&quot;&gt;&lt;font style=&quot;vertical-align: inherit;&quot;&gt;true&lt;/font&gt;&lt;/font&gt;" style="edgeLabel;html=1;align=center;verticalAlign=middle;resizable=0;points=[];" vertex="1" connectable="0" parent="Op1IBPKBzXU0KuALItda-38">
          <mxGeometry x="-0.0667" y="2" relative="1" as="geometry">
            <mxPoint y="1" as="offset" />
          </mxGeometry>
        </mxCell>
        <mxCell id="Op1IBPKBzXU0KuALItda-9" value="&lt;font style=&quot;vertical-align: inherit;&quot;&gt;&lt;font style=&quot;vertical-align: inherit;&quot;&gt;x&amp;gt;32&lt;/font&gt;&lt;/font&gt;" style="rhombus;whiteSpace=wrap;html=1;" vertex="1" parent="1">
          <mxGeometry x="360" y="584.5" width="80" height="80" as="geometry" />
        </mxCell>
        <mxCell id="Op1IBPKBzXU0KuALItda-14" style="edgeStyle=orthogonalEdgeStyle;rounded=0;orthogonalLoop=1;jettySize=auto;html=1;exitX=0.5;exitY=1;exitDx=0;exitDy=0;" edge="1" parent="1" source="Op1IBPKBzXU0KuALItda-11" target="Op1IBPKBzXU0KuALItda-13">
          <mxGeometry relative="1" as="geometry" />
        </mxCell>
        <mxCell id="Op1IBPKBzXU0KuALItda-22" value="&lt;font style=&quot;vertical-align: inherit;&quot;&gt;&lt;font style=&quot;vertical-align: inherit;&quot;&gt;false&lt;/font&gt;&lt;/font&gt;" style="edgeLabel;html=1;align=center;verticalAlign=middle;resizable=0;points=[];" vertex="1" connectable="0" parent="Op1IBPKBzXU0KuALItda-14">
          <mxGeometry x="-0.1667" y="-1" relative="1" as="geometry">
            <mxPoint as="offset" />
          </mxGeometry>
        </mxCell>
        <mxCell id="Op1IBPKBzXU0KuALItda-39" style="edgeStyle=orthogonalEdgeStyle;rounded=0;orthogonalLoop=1;jettySize=auto;html=1;exitX=1;exitY=0.5;exitDx=0;exitDy=0;entryX=0;entryY=0.5;entryDx=0;entryDy=0;" edge="1" parent="1" source="Op1IBPKBzXU0KuALItda-11" target="Op1IBPKBzXU0KuALItda-32">
          <mxGeometry relative="1" as="geometry" />
        </mxCell>
        <mxCell id="Op1IBPKBzXU0KuALItda-52" value="&lt;font style=&quot;vertical-align: inherit;&quot;&gt;&lt;font style=&quot;vertical-align: inherit;&quot;&gt;true&lt;/font&gt;&lt;/font&gt;" style="edgeLabel;html=1;align=center;verticalAlign=middle;resizable=0;points=[];" vertex="1" connectable="0" parent="Op1IBPKBzXU0KuALItda-39">
          <mxGeometry x="-0.1111" y="-2" relative="1" as="geometry">
            <mxPoint as="offset" />
          </mxGeometry>
        </mxCell>
        <mxCell id="Op1IBPKBzXU0KuALItda-11" value="&lt;font style=&quot;vertical-align: inherit;&quot;&gt;&lt;font style=&quot;vertical-align: inherit;&quot;&gt;x&amp;gt;18&lt;/font&gt;&lt;/font&gt;" style="rhombus;whiteSpace=wrap;html=1;" vertex="1" parent="1">
          <mxGeometry x="360" y="730" width="80" height="80" as="geometry" />
        </mxCell>
        <mxCell id="Op1IBPKBzXU0KuALItda-16" style="edgeStyle=orthogonalEdgeStyle;rounded=0;orthogonalLoop=1;jettySize=auto;html=1;exitX=0.5;exitY=1;exitDx=0;exitDy=0;" edge="1" parent="1" source="Op1IBPKBzXU0KuALItda-13" target="Op1IBPKBzXU0KuALItda-15">
          <mxGeometry relative="1" as="geometry" />
        </mxCell>
        <mxCell id="Op1IBPKBzXU0KuALItda-23" value="&lt;font style=&quot;vertical-align: inherit;&quot;&gt;&lt;font style=&quot;vertical-align: inherit;&quot;&gt;false&lt;/font&gt;&lt;/font&gt;" style="edgeLabel;html=1;align=center;verticalAlign=middle;resizable=0;points=[];" vertex="1" connectable="0" parent="Op1IBPKBzXU0KuALItda-16">
          <mxGeometry relative="1" as="geometry">
            <mxPoint as="offset" />
          </mxGeometry>
        </mxCell>
        <mxCell id="Op1IBPKBzXU0KuALItda-40" style="edgeStyle=orthogonalEdgeStyle;rounded=0;orthogonalLoop=1;jettySize=auto;html=1;exitX=1;exitY=0.5;exitDx=0;exitDy=0;" edge="1" parent="1" source="Op1IBPKBzXU0KuALItda-13" target="Op1IBPKBzXU0KuALItda-33">
          <mxGeometry relative="1" as="geometry" />
        </mxCell>
        <mxCell id="Op1IBPKBzXU0KuALItda-55" value="&lt;font style=&quot;vertical-align: inherit;&quot;&gt;&lt;font style=&quot;vertical-align: inherit;&quot;&gt;true&lt;/font&gt;&lt;/font&gt;" style="edgeLabel;html=1;align=center;verticalAlign=middle;resizable=0;points=[];" vertex="1" connectable="0" parent="Op1IBPKBzXU0KuALItda-40">
          <mxGeometry x="-0.0889" y="-1" relative="1" as="geometry">
            <mxPoint as="offset" />
          </mxGeometry>
        </mxCell>
        <mxCell id="Op1IBPKBzXU0KuALItda-13" value="&lt;font style=&quot;vertical-align: inherit;&quot;&gt;&lt;font style=&quot;vertical-align: inherit;&quot;&gt;x&amp;gt;10&lt;/font&gt;&lt;/font&gt;" style="rhombus;whiteSpace=wrap;html=1;" vertex="1" parent="1">
          <mxGeometry x="360" y="870" width="80" height="80" as="geometry" />
        </mxCell>
        <mxCell id="Op1IBPKBzXU0KuALItda-18" style="edgeStyle=orthogonalEdgeStyle;rounded=0;orthogonalLoop=1;jettySize=auto;html=1;exitX=0.5;exitY=1;exitDx=0;exitDy=0;" edge="1" parent="1" source="Op1IBPKBzXU0KuALItda-15" target="Op1IBPKBzXU0KuALItda-17">
          <mxGeometry relative="1" as="geometry" />
        </mxCell>
        <mxCell id="Op1IBPKBzXU0KuALItda-24" value="&lt;font style=&quot;vertical-align: inherit;&quot;&gt;&lt;font style=&quot;vertical-align: inherit;&quot;&gt;false&lt;/font&gt;&lt;/font&gt;" style="edgeLabel;html=1;align=center;verticalAlign=middle;resizable=0;points=[];" vertex="1" connectable="0" parent="Op1IBPKBzXU0KuALItda-18">
          <mxGeometry x="-0.0667" y="-2" relative="1" as="geometry">
            <mxPoint as="offset" />
          </mxGeometry>
        </mxCell>
        <mxCell id="Op1IBPKBzXU0KuALItda-41" style="edgeStyle=orthogonalEdgeStyle;rounded=0;orthogonalLoop=1;jettySize=auto;html=1;exitX=1;exitY=0.5;exitDx=0;exitDy=0;entryX=0;entryY=0.5;entryDx=0;entryDy=0;" edge="1" parent="1" source="Op1IBPKBzXU0KuALItda-15" target="Op1IBPKBzXU0KuALItda-34">
          <mxGeometry relative="1" as="geometry" />
        </mxCell>
        <mxCell id="Op1IBPKBzXU0KuALItda-56" value="&lt;font style=&quot;vertical-align: inherit;&quot;&gt;&lt;font style=&quot;vertical-align: inherit;&quot;&gt;true&lt;/font&gt;&lt;/font&gt;" style="edgeLabel;html=1;align=center;verticalAlign=middle;resizable=0;points=[];" vertex="1" connectable="0" parent="Op1IBPKBzXU0KuALItda-41">
          <mxGeometry x="-0.1111" y="1" relative="1" as="geometry">
            <mxPoint as="offset" />
          </mxGeometry>
        </mxCell>
        <mxCell id="Op1IBPKBzXU0KuALItda-15" value="&lt;font style=&quot;vertical-align: inherit;&quot;&gt;&lt;font style=&quot;vertical-align: inherit;&quot;&gt;x&amp;gt;5&lt;/font&gt;&lt;/font&gt;" style="rhombus;whiteSpace=wrap;html=1;" vertex="1" parent="1">
          <mxGeometry x="360" y="1010" width="80" height="80" as="geometry" />
        </mxCell>
        <mxCell id="Op1IBPKBzXU0KuALItda-26" style="edgeStyle=orthogonalEdgeStyle;rounded=0;orthogonalLoop=1;jettySize=auto;html=1;exitX=0.5;exitY=1;exitDx=0;exitDy=0;entryX=0.5;entryY=0;entryDx=0;entryDy=0;" edge="1" parent="1" source="Op1IBPKBzXU0KuALItda-17" target="Op1IBPKBzXU0KuALItda-25">
          <mxGeometry relative="1" as="geometry" />
        </mxCell>
        <mxCell id="Op1IBPKBzXU0KuALItda-17" value="&lt;font style=&quot;vertical-align: inherit;&quot;&gt;&lt;font style=&quot;vertical-align: inherit;&quot;&gt;x&amp;gt;0&lt;/font&gt;&lt;/font&gt;" style="rhombus;whiteSpace=wrap;html=1;" vertex="1" parent="1">
          <mxGeometry x="360" y="1150" width="80" height="80" as="geometry" />
        </mxCell>
        <mxCell id="Op1IBPKBzXU0KuALItda-28" style="edgeStyle=orthogonalEdgeStyle;rounded=0;orthogonalLoop=1;jettySize=auto;html=1;exitX=0.5;exitY=1;exitDx=0;exitDy=0;entryX=0.5;entryY=0;entryDx=0;entryDy=0;" edge="1" parent="1" source="Op1IBPKBzXU0KuALItda-25" target="Op1IBPKBzXU0KuALItda-27">
          <mxGeometry relative="1" as="geometry" />
        </mxCell>
        <mxCell id="Op1IBPKBzXU0KuALItda-25" value="lương ròng là:x-x*0.05 và tiền thuế là x*0.05" style="shape=parallelogram;perimeter=parallelogramPerimeter;whiteSpace=wrap;html=1;fixedSize=1;" vertex="1" parent="1">
          <mxGeometry x="340" y="1280" width="120" height="60" as="geometry" />
        </mxCell>
        <mxCell id="Op1IBPKBzXU0KuALItda-27" value="End" style="ellipse;whiteSpace=wrap;html=1;" vertex="1" parent="1">
          <mxGeometry x="340" y="1400" width="120" height="80" as="geometry" />
        </mxCell>
        <mxCell id="Op1IBPKBzXU0KuALItda-42" style="edgeStyle=orthogonalEdgeStyle;rounded=0;orthogonalLoop=1;jettySize=auto;html=1;exitX=1;exitY=0.5;exitDx=0;exitDy=0;entryX=1;entryY=0.5;entryDx=0;entryDy=0;" edge="1" parent="1" source="Op1IBPKBzXU0KuALItda-29" target="Op1IBPKBzXU0KuALItda-27">
          <mxGeometry relative="1" as="geometry">
            <Array as="points">
              <mxPoint x="780" y="320" />
              <mxPoint x="780" y="1440" />
            </Array>
          </mxGeometry>
        </mxCell>
        <mxCell id="Op1IBPKBzXU0KuALItda-29" value="lương ròng là:x-x*0.35 và tiền thuế là x*0.35" style="shape=parallelogram;perimeter=parallelogramPerimeter;whiteSpace=wrap;html=1;fixedSize=1;strokeWidth=1;perimeterSpacing=1;" vertex="1" parent="1">
          <mxGeometry x="520" y="290" width="120" height="60" as="geometry" />
        </mxCell>
        <mxCell id="Op1IBPKBzXU0KuALItda-30" value="lương ròng là:x-x*0.3 và tiền thuế là x*0.3" style="shape=parallelogram;perimeter=parallelogramPerimeter;whiteSpace=wrap;html=1;fixedSize=1;" vertex="1" parent="1">
          <mxGeometry x="520" y="440" width="120" height="60" as="geometry" />
        </mxCell>
        <mxCell id="Op1IBPKBzXU0KuALItda-31" value="lương ròng là:x-x*0.25 và tiền thuế là x*0.25" style="shape=parallelogram;perimeter=parallelogramPerimeter;whiteSpace=wrap;html=1;fixedSize=1;" vertex="1" parent="1">
          <mxGeometry x="520" y="594.5" width="120" height="60" as="geometry" />
        </mxCell>
        <mxCell id="Op1IBPKBzXU0KuALItda-32" value="lương ròng là:x-x*0.2 và tiền thuế là x*0.2" style="shape=parallelogram;perimeter=parallelogramPerimeter;whiteSpace=wrap;html=1;fixedSize=1;" vertex="1" parent="1">
          <mxGeometry x="520" y="740" width="120" height="60" as="geometry" />
        </mxCell>
        <mxCell id="Op1IBPKBzXU0KuALItda-33" value="lương ròng là:x-x*0.15 và tiền thuế là x*0.15" style="shape=parallelogram;perimeter=parallelogramPerimeter;whiteSpace=wrap;html=1;fixedSize=1;" vertex="1" parent="1">
          <mxGeometry x="520" y="880" width="120" height="60" as="geometry" />
        </mxCell>
        <mxCell id="Op1IBPKBzXU0KuALItda-34" value="lương ròng là:x-x*0.1 và tiền thuế là x*0.1" style="shape=parallelogram;perimeter=parallelogramPerimeter;whiteSpace=wrap;html=1;fixedSize=1;" vertex="1" parent="1">
          <mxGeometry x="520" y="1020" width="120" height="60" as="geometry" />
        </mxCell>
        <mxCell id="Op1IBPKBzXU0KuALItda-43" value="" style="endArrow=none;html=1;rounded=0;entryX=1;entryY=0.5;entryDx=0;entryDy=0;" edge="1" parent="1" target="Op1IBPKBzXU0KuALItda-30">
          <mxGeometry width="50" height="50" relative="1" as="geometry">
            <mxPoint x="780" y="470" as="sourcePoint" />
            <mxPoint x="440" y="430" as="targetPoint" />
          </mxGeometry>
        </mxCell>
        <mxCell id="Op1IBPKBzXU0KuALItda-44" value="" style="endArrow=none;html=1;rounded=0;entryX=1;entryY=0.5;entryDx=0;entryDy=0;" edge="1" parent="1" target="Op1IBPKBzXU0KuALItda-31">
          <mxGeometry width="50" height="50" relative="1" as="geometry">
            <mxPoint x="780" y="625" as="sourcePoint" />
            <mxPoint x="440" y="630" as="targetPoint" />
          </mxGeometry>
        </mxCell>
        <mxCell id="Op1IBPKBzXU0KuALItda-45" value="" style="endArrow=none;html=1;rounded=0;entryX=1;entryY=0.5;entryDx=0;entryDy=0;" edge="1" parent="1" target="Op1IBPKBzXU0KuALItda-32">
          <mxGeometry width="50" height="50" relative="1" as="geometry">
            <mxPoint x="780" y="770" as="sourcePoint" />
            <mxPoint x="440" y="830" as="targetPoint" />
          </mxGeometry>
        </mxCell>
        <mxCell id="Op1IBPKBzXU0KuALItda-46" value="" style="endArrow=none;html=1;rounded=0;entryX=1;entryY=0.5;entryDx=0;entryDy=0;" edge="1" parent="1" target="Op1IBPKBzXU0KuALItda-33">
          <mxGeometry width="50" height="50" relative="1" as="geometry">
            <mxPoint x="780" y="910" as="sourcePoint" />
            <mxPoint x="440" y="930" as="targetPoint" />
          </mxGeometry>
        </mxCell>
        <mxCell id="Op1IBPKBzXU0KuALItda-48" value="" style="endArrow=none;html=1;rounded=0;entryX=1;entryY=0.5;entryDx=0;entryDy=0;" edge="1" parent="1" target="Op1IBPKBzXU0KuALItda-34">
          <mxGeometry width="50" height="50" relative="1" as="geometry">
            <mxPoint x="780" y="1050" as="sourcePoint" />
            <mxPoint x="440" y="1130" as="targetPoint" />
          </mxGeometry>
        </mxCell>
      </root>
    </mxGraphModel>
  </diagram>
</mxfile>
